<svg width="20" height="20" viewBox="0 0 20 20" fill="none" xmlns="http://www.w3.org/2000/svg">
<path d="M13.3307 0.833252H14.9974V5.4882L16.9082 3.57739L18.0867 4.7559L14.7534 8.08924C14.4279 8.41467 13.9003 8.41467 13.5749 8.08924L10.2415 4.7559L11.42 3.57739L13.3307 5.48807V0.833252Z" fill="#E75A5A"/>
<path d="M1.66406 5.83325C1.66406 4.45254 2.78335 3.33325 4.16406 3.33325H8.33073V4.99992H4.16406C3.70383 4.99992 3.33073 5.37301 3.33073 5.83325L3.33073 6.66658H8.33073V8.33325H3.33073V14.1666C3.33073 14.6268 3.70382 14.9999 4.16406 14.9999H15.8307C16.291 14.9999 16.6641 14.6268 16.6641 14.1666V8.33325L18.3307 8.33325V14.1666C18.3307 15.5473 17.2114 16.6666 15.8307 16.6666H4.16406C2.78335 16.6666 1.66406 15.5473 1.66406 14.1666V5.83325Z" fill="#E75A5A"/>
</svg>
